<svg width="51" height="51" viewBox="0 0 51 51" fill="none" xmlns="http://www.w3.org/2000/svg">
<g clip-path="url(#clip0_1:4237)">
<path d="M50.1477 19.9792H0.147827V9.92175C0.147827 9.44567 0.533862 9.05964 1.00993 9.05964H49.2857C49.7618 9.05964 50.1478 9.44567 50.1478 9.92175L50.1477 19.9792Z" fill="#82AFFF"/>
<path d="M49.2849 41.8182H1.00923C0.53316 41.8182 0.147125 41.4322 0.147125 40.9561V30.8987H50.147V40.9561C50.147 41.4323 49.761 41.8182 49.2849 41.8182Z" fill="#82AFFF"/>
<path d="M50.1476 19.9791H0.147736V30.898H50.1476V19.9791Z" fill="#F5F5F5"/>
<path d="M29.4582 25.2235H26.3543C26.4122 25.1795 26.458 25.1363 26.4994 25.0955C26.5752 25.0213 26.6354 24.9625 26.7953 24.8967C26.956 24.8294 27.0402 24.8286 27.1467 24.8269C27.2751 24.826 27.4204 24.8236 27.6578 24.7258C27.8948 24.6273 27.9983 24.5262 28.0897 24.4371C28.1655 24.3629 28.2257 24.3041 28.386 24.2375C28.5455 24.171 28.6294 24.1701 28.7353 24.1693C28.8633 24.1675 29.0085 24.166 29.2459 24.0674L29.08 23.67C28.9206 23.7365 28.8367 23.7374 28.7307 23.7381C28.6027 23.7399 28.4576 23.7415 28.2206 23.8392C27.9837 23.9378 27.88 24.0388 27.7886 24.128C27.7129 24.2021 27.6526 24.261 27.4927 24.3267C27.332 24.3941 27.2478 24.3949 27.1413 24.3965C27.013 24.3974 26.8676 24.3999 26.6302 24.4984C26.3933 24.5961 26.2897 24.698 26.1983 24.7872C26.1237 24.8597 26.0621 24.9178 25.9087 24.9827L28.3481 22.5435L28.0433 22.2387L25.8475 24.4343C25.8572 24.3626 25.8598 24.2987 25.8604 24.2408C25.8617 24.1338 25.8626 24.0504 25.9291 23.8897C25.9956 23.729 26.0545 23.6691 26.1287 23.5934C26.2187 23.5016 26.3202 23.3973 26.4186 23.1599C26.5167 22.9225 26.5184 22.7777 26.5197 22.6498C26.521 22.5437 26.5218 22.4594 26.5879 22.2996C26.6544 22.1396 26.7129 22.0798 26.787 22.0041C26.8766 21.9123 26.978 21.8087 27.0762 21.5721L26.6781 21.4072C26.6116 21.5672 26.5531 21.6269 26.479 21.7027C26.3893 21.7945 26.288 21.8981 26.1897 22.1346C26.0917 22.372 26.0899 22.5169 26.0886 22.6448C26.0874 22.7508 26.0865 22.8351 26.0205 22.995C25.954 23.1557 25.8951 23.2156 25.8209 23.2913C25.7308 23.3831 25.6294 23.4874 25.5309 23.7248C25.4329 23.9622 25.4311 24.1079 25.4296 24.2358C25.4287 24.3396 25.4257 24.4235 25.3635 24.5776V21.1286H24.9325V24.2324C24.8885 24.1749 24.8454 24.1292 24.8049 24.0878C24.7305 24.012 24.6719 23.9513 24.6053 23.7915C24.5388 23.6307 24.5376 23.5465 24.5363 23.4395C24.535 23.3115 24.5334 23.1659 24.4349 22.9285C24.3369 22.692 24.2353 22.5884 24.1457 22.4965C24.0716 22.4208 24.0132 22.361 23.9466 22.201C23.8805 22.0411 23.8797 21.9569 23.8784 21.8508C23.8771 21.7228 23.8755 21.5781 23.7773 21.3415L23.3792 21.5064C23.4452 21.6664 23.4461 21.7498 23.4473 21.8557C23.4486 21.9838 23.4503 22.1285 23.5484 22.3659C23.6465 22.6024 23.748 22.7059 23.8377 22.7978C23.9118 22.8736 23.9702 22.9334 24.0368 23.0933C24.1033 23.2541 24.1046 23.3382 24.1058 23.4453C24.1071 23.5733 24.1088 23.7189 24.2072 23.9563C24.3052 24.1937 24.4068 24.2972 24.4965 24.389C24.5695 24.4632 24.6273 24.5253 24.6922 24.6783L22.2525 22.2389L21.9477 22.5437L24.3836 24.9793C24.25 24.9186 24.1855 24.8628 24.1155 24.7949C24.0234 24.7048 23.9194 24.603 23.6811 24.5045C23.4437 24.4068 23.2985 24.4043 23.1701 24.4026C23.0632 24.4017 22.9791 24.4002 22.817 24.3328C22.6549 24.2663 22.5943 24.2074 22.5173 24.1325C22.4252 24.0432 22.3207 23.9415 22.082 23.842C21.8437 23.7435 21.698 23.7419 21.5693 23.7402C21.462 23.7384 21.3774 23.7369 21.2153 23.6695L21.0504 24.0685C21.2886 24.167 21.4344 24.1687 21.5631 24.1704C21.6704 24.1721 21.755 24.1737 21.9171 24.2411C22.0796 24.3076 22.1401 24.3665 22.2172 24.4414C22.3093 24.5314 22.4137 24.6324 22.6519 24.731C22.8902 24.8303 23.0359 24.8321 23.1642 24.8337C23.2712 24.8355 23.3552 24.8362 23.5166 24.9036C23.6778 24.9701 23.7381 25.029 23.8142 25.1032C23.8534 25.1416 23.8971 25.1822 23.9501 25.2236H20.8373V25.6546H24.28C24.144 25.7064 24.059 25.7129 23.9614 25.7144C23.8331 25.7153 23.6878 25.7177 23.45 25.8155C23.2122 25.914 23.1077 26.0158 23.0156 26.1051C22.9389 26.18 22.8788 26.2389 22.7175 26.3054C22.5554 26.3728 22.4709 26.3745 22.3635 26.3761C22.2347 26.3779 22.0891 26.3794 21.8509 26.478C21.6122 26.5773 21.5078 26.6783 21.4156 26.7684C21.3385 26.8433 21.278 26.9022 21.1159 26.9687L21.2808 27.3677C21.5191 27.2684 21.6235 27.1674 21.7156 27.0773C21.7926 27.0024 21.8532 26.9435 22.0157 26.877C22.1778 26.8096 22.2624 26.808 22.3697 26.8063C22.4985 26.8045 22.6441 26.803 22.8829 26.7036C23.1203 26.605 23.2243 26.504 23.3164 26.4139C23.3925 26.3398 23.4532 26.2809 23.6149 26.2143C23.7757 26.1469 23.8603 26.1461 23.9669 26.1445C24.0214 26.1442 24.0828 26.1406 24.1493 26.1324L21.9472 28.3341L22.252 28.6389L24.6867 26.2046C24.6267 26.3376 24.5714 26.4018 24.5032 26.472C24.4135 26.5638 24.3122 26.6681 24.2135 26.9055C24.1149 27.1429 24.1129 27.2895 24.1117 27.4173C24.1099 27.5243 24.1092 27.6084 24.0422 27.7701C23.9753 27.9326 23.9159 27.9931 23.8414 28.0698C23.7513 28.1616 23.6499 28.2667 23.5509 28.505C23.452 28.7433 23.4503 28.889 23.4487 29.0177C23.4469 29.1247 23.4458 29.2096 23.3789 29.3712L23.777 29.5362C23.8759 29.2979 23.8777 29.1522 23.8793 29.0235C23.881 28.9165 23.8822 28.8316 23.9491 28.67C24.016 28.5075 24.0754 28.4469 24.1499 28.3703C24.2399 28.2785 24.3414 28.1733 24.4403 27.935C24.5388 27.6976 24.541 27.551 24.5422 27.4232C24.5439 27.3163 24.5446 27.2322 24.6117 27.0705C24.6782 26.9088 24.7371 26.849 24.8116 26.7724C24.8499 26.7332 24.8906 26.6893 24.932 26.6362V29.7493H25.3631V26.3067C25.4144 26.4424 25.421 26.5273 25.4224 26.6251C25.4237 26.7532 25.4257 26.8988 25.5243 27.1362C25.6223 27.3745 25.7242 27.4789 25.8139 27.5706C25.8883 27.6472 25.9473 27.7078 26.0142 27.8694C26.0811 28.031 26.0824 28.1161 26.084 28.2229C26.0858 28.3517 26.0874 28.4973 26.1863 28.7356C26.2852 28.9739 26.3866 29.0791 26.4767 29.1708C26.5511 29.2475 26.6105 29.3081 26.6775 29.4706L27.0756 29.3056C26.9767 29.0673 26.8754 28.9621 26.7852 28.8704C26.7108 28.7937 26.6514 28.7332 26.5844 28.5707C26.5175 28.409 26.5163 28.324 26.5146 28.2171C26.5129 28.0883 26.5113 27.9427 26.4124 27.7044C26.3138 27.4662 26.2125 27.3618 26.1227 27.2701C26.0483 27.1934 25.9893 27.1329 25.9224 26.9712C25.8555 26.8105 25.8547 26.7263 25.8529 26.6193C25.8523 26.5649 25.8488 26.5034 25.8406 26.4369L28.0429 28.639L28.3477 28.3342L26.1522 26.1391C26.2235 26.1486 26.2874 26.1514 26.3449 26.1522C26.4513 26.1531 26.5352 26.154 26.696 26.2204C26.8567 26.2877 26.917 26.3458 26.9931 26.4207C27.0849 26.5099 27.1888 26.6117 27.4263 26.7103C27.6633 26.808 27.8086 26.8096 27.9365 26.8105C28.0425 26.8123 28.1263 26.8129 28.2863 26.8795C28.4462 26.9452 28.506 27.0042 28.5818 27.0783C28.6736 27.1675 28.7772 27.2693 29.0141 27.3679L29.1791 26.9689C29.0191 26.9033 28.9593 26.8443 28.8836 26.7702C28.7918 26.6809 28.6881 26.5792 28.4512 26.4805C28.2143 26.3829 28.069 26.3812 27.9411 26.3803C27.835 26.3786 27.7512 26.3779 27.5913 26.3113C27.4305 26.2448 27.3703 26.1867 27.2941 26.1117C27.2023 26.0224 27.0984 25.9207 26.8609 25.8229C26.6235 25.7236 26.4783 25.7218 26.3499 25.721C26.2454 25.7193 26.1607 25.7173 26.0057 25.6545H29.4579V25.2235H29.4582Z" fill="#F09146"/>
<path d="M25.1478 27.5943C26.3381 27.5943 27.303 26.6293 27.303 25.439C27.303 24.2487 26.3381 23.2837 25.1478 23.2837C23.9574 23.2837 22.9925 24.2487 22.9925 25.439C22.9925 26.6293 23.9574 27.5943 25.1478 27.5943Z" fill="#FFE15A"/>
</g>
<defs>
<clipPath id="clip0_1:4237">
<rect width="50" height="50" fill="white" transform="translate(0.148438 0.438965)"/>
</clipPath>
</defs>
</svg>
