<svg width="51" height="51" viewBox="0 0 51 51" fill="none" xmlns="http://www.w3.org/2000/svg">
<g clip-path="url(#clip0)">
<path d="M49.3005 41.5394H1.02477C0.548693 41.5394 0.162659 41.1534 0.162659 40.6773V9.64288C0.162659 9.16681 0.548693 8.78078 1.02477 8.78078H49.3006C49.7766 8.78078 50.1627 9.16681 50.1627 9.64288V40.6773C50.1626 41.1535 49.7765 41.5394 49.3005 41.5394Z" fill="#73AF00"/>
<path d="M24.7144 13.3641L6.5449 24.4237C5.99305 24.7596 5.99305 25.5605 6.5449 25.8965L24.7144 36.9562C24.9897 37.1238 25.3355 37.1238 25.6109 36.9562L43.7805 25.8966C44.3323 25.5607 44.3323 24.7598 43.7805 24.4238L25.6109 13.3641C25.3356 13.1965 24.9897 13.1965 24.7144 13.3641Z" fill="#FFE15A"/>
<path d="M25.1627 32.0566C28.9715 32.0566 32.0592 28.969 32.0592 25.1602C32.0592 21.3513 28.9715 18.2637 25.1627 18.2637C21.3539 18.2637 18.2662 21.3513 18.2662 25.1602C18.2662 28.969 21.3539 32.0566 25.1627 32.0566Z" fill="#41479B"/>
<path d="M19.2446 21.6321C18.9192 22.1769 18.6679 22.7689 18.5019 23.3975C22.3251 23.1098 27.9806 24.1793 31.5802 27.6722C31.8152 27.0725 31.9703 26.4336 32.0285 25.7657C28.3116 22.6375 23.173 21.5251 19.2446 21.6321Z" fill="#F5F5F5"/>
<path d="M25.4479 27.5136L25.6314 28.0642L26.2118 28.0687C26.2869 28.0693 26.3181 28.1652 26.2577 28.2098L25.7908 28.5546L25.9659 29.1079C25.9886 29.1796 25.9069 29.2389 25.8459 29.1951L25.3737 28.8576L24.9016 29.1951C24.8404 29.2389 24.7589 29.1796 24.7816 29.1079L24.9566 28.5546L24.4898 28.2098C24.4293 28.1652 24.4605 28.0693 24.5356 28.0687L25.1159 28.0642L25.2995 27.5136C25.3232 27.4423 25.424 27.4423 25.4479 27.5136Z" fill="#F5F5F5"/>
<path d="M27.7037 28.9379L27.7827 29.1748L28.0325 29.1768C28.0648 29.177 28.0783 29.2183 28.0522 29.2375L27.8512 29.3859L27.9265 29.624C27.9363 29.6549 27.9012 29.6804 27.8749 29.6615L27.6716 29.5163L27.4684 29.6615C27.4422 29.6804 27.407 29.6549 27.4168 29.624L27.4921 29.3859L27.2911 29.2375C27.2651 29.2184 27.2785 29.1771 27.3108 29.1768L27.5606 29.1748L27.6396 28.9379C27.65 28.9072 27.6934 28.9072 27.7037 28.9379Z" fill="#F5F5F5"/>
<path d="M24.4727 26.4677L24.5517 26.7046L24.8015 26.7065C24.8338 26.7067 24.8473 26.748 24.8212 26.7673L24.6203 26.9156L24.6955 27.1538C24.7053 27.1847 24.6702 27.2101 24.6439 27.1913L24.4407 27.0461L24.2374 27.1913C24.2112 27.2101 24.176 27.1847 24.1858 27.1538L24.2611 26.9156L24.0601 26.7673C24.0341 26.7481 24.0475 26.7068 24.0798 26.7065L24.3296 26.7046L24.4086 26.4677C24.419 26.437 24.4624 26.437 24.4727 26.4677Z" fill="#F5F5F5"/>
<path d="M20.0971 26.1804L20.1761 26.4173L20.4259 26.4192C20.4582 26.4194 20.4717 26.4607 20.4456 26.48L20.2446 26.6283L20.3199 26.8665C20.3297 26.8974 20.2946 26.9229 20.2682 26.904L20.065 26.7588L19.8618 26.904C19.8355 26.9229 19.8004 26.8974 19.8101 26.8665L19.8854 26.6283L19.6845 26.48C19.6585 26.4608 19.6719 26.4195 19.7042 26.4192L19.954 26.4173L20.033 26.1804C20.0434 26.1497 20.0868 26.1497 20.0971 26.1804Z" fill="#F5F5F5"/>
<path d="M23.7575 28.8561L23.8365 29.093L24.0863 29.0949C24.1186 29.0951 24.1321 29.1364 24.106 29.1557L23.905 29.304L23.9803 29.5422C23.9901 29.573 23.955 29.5985 23.9287 29.5797L23.7254 29.4345L23.5222 29.5797C23.496 29.5985 23.4608 29.573 23.4706 29.5422L23.5459 29.304L23.3449 29.1557C23.3189 29.1365 23.3323 29.0952 23.3646 29.0949L23.6144 29.093L23.6934 28.8561C23.7039 28.8255 23.7473 28.8255 23.7575 28.8561Z" fill="#F5F5F5"/>
<path d="M21.7434 26.0151L21.808 26.2088L22.0123 26.2105C22.0387 26.2107 22.0497 26.2445 22.0286 26.2602L21.8642 26.3815L21.9258 26.5762C21.9338 26.6014 21.9051 26.6223 21.8835 26.6069L21.7173 26.4881L21.5511 26.6069C21.5295 26.6223 21.5009 26.6014 21.5088 26.5762L21.5704 26.3815L21.4061 26.2602C21.3849 26.2445 21.3957 26.2107 21.4223 26.2105L21.6266 26.2088L21.6912 26.0151C21.6996 25.99 21.735 25.99 21.7434 26.0151Z" fill="#F5F5F5"/>
<path d="M27.879 22.015L27.9599 22.2573L28.2153 22.2593C28.2484 22.2595 28.2621 22.3018 28.2354 22.3214L28.03 22.4732L28.107 22.7168C28.1171 22.7484 28.081 22.7744 28.0542 22.7552L27.8463 22.6066L27.6384 22.7552C27.6114 22.7745 27.5756 22.7483 27.5855 22.7168L27.6626 22.4732L27.4571 22.3214C27.4305 22.3018 27.4442 22.2596 27.4772 22.2593L27.7327 22.2573L27.8136 22.015C27.8241 21.9835 27.8685 21.9835 27.879 22.015Z" fill="#F5F5F5"/>
<path d="M20.3785 24.8297L20.4431 25.0235L20.6474 25.0251C20.6738 25.0253 20.6848 25.0591 20.6637 25.0748L20.4993 25.1961L20.5609 25.3908C20.5689 25.416 20.5402 25.4369 20.5186 25.4215L20.3524 25.3028L20.1862 25.4215C20.1646 25.4369 20.136 25.416 20.1439 25.3908L20.2055 25.1961L20.0412 25.0748C20.02 25.0591 20.0308 25.0254 20.0574 25.0251L20.2617 25.0235L20.3263 24.8297C20.3347 24.8046 20.3701 24.8046 20.3785 24.8297Z" fill="#F5F5F5"/>
<path d="M21.3647 27.5606L21.4626 27.8541L21.7719 27.8565C21.812 27.8567 21.8286 27.9078 21.7963 27.9316L21.5474 28.1154L21.6408 28.4104C21.6529 28.4485 21.6094 28.4802 21.5768 28.4568L21.3251 28.277L21.0733 28.4568C21.0408 28.4801 20.9972 28.4485 21.0093 28.4104L21.1027 28.1154L20.8538 27.9316C20.8215 27.9078 20.8381 27.8567 20.8782 27.8565L21.1876 27.8541L21.2854 27.5606C21.2984 27.5227 21.3521 27.5227 21.3647 27.5606Z" fill="#F5F5F5"/>
<path d="M28.9617 28.9994L29.0232 29.1841L29.2178 29.1856C29.243 29.1857 29.2534 29.2179 29.2332 29.2328L29.0767 29.3484L29.1354 29.534C29.143 29.558 29.1157 29.5778 29.0951 29.5632L28.9368 29.45L28.7784 29.5632C28.7578 29.5778 28.7305 29.558 28.738 29.534L28.7967 29.3484L28.6402 29.2328C28.62 29.2179 28.6304 29.1857 28.6556 29.1856L28.8502 29.1841L28.9118 28.9994C28.9199 28.9755 28.9537 28.9755 28.9617 28.9994Z" fill="#F5F5F5"/>
<path d="M29.6425 27.5902L29.7215 27.8271L29.9713 27.8291C30.0036 27.8293 30.0171 27.8706 29.991 27.8898L29.79 28.0382L29.8653 28.2764C29.8751 28.3072 29.84 28.3327 29.8137 28.3139L29.6105 28.1686L29.4072 28.3139C29.381 28.3327 29.3458 28.3072 29.3556 28.2764L29.4309 28.0382L29.2299 27.8898C29.2039 27.8707 29.2173 27.8294 29.2496 27.8291L29.4994 27.8271L29.5784 27.5902C29.5888 27.5595 29.6322 27.5595 29.6425 27.5902Z" fill="#F5F5F5"/>
</g>
<defs>
<clipPath id="clip0">
<rect width="50" height="50" fill="white" transform="translate(0.162109 0.160156)"/>
</clipPath>
</defs>
</svg>
