<svg width="51" height="51" viewBox="0 0 51 51" fill="none" xmlns="http://www.w3.org/2000/svg">
<g clip-path="url(#clip0_1:3642)">
<path d="M49.3005 41.8324H1.02477C0.548693 41.8324 0.162659 41.4464 0.162659 40.9703V9.9359C0.162659 9.45983 0.548693 9.07379 1.02477 9.07379H49.3006C49.7766 9.07379 50.1627 9.45983 50.1627 9.9359V40.9703C50.1626 41.4465 49.7765 41.8324 49.3005 41.8324Z" fill="#F5F5F5"/>
<path d="M38.9562 9.07425H11.3703V41.833H38.9562V9.07425Z" fill="#F5F5F5"/>
<path d="M1.02477 9.07401C0.548693 9.07401 0.162659 9.45994 0.162659 9.93601V40.9704C0.162659 41.4465 0.548693 41.8325 1.02477 41.8325H11.3696V9.07401H1.02477Z" fill="#FF4B55"/>
<path d="M49.3011 9.07394H38.9563V41.8325H49.3011C49.7772 41.8325 50.1632 41.4464 50.1632 40.9704V9.93595C50.1632 9.45988 49.7772 9.07394 49.3011 9.07394Z" fill="#FF4B55"/>
<path d="M30.3946 29.2384L35.5101 26.3153L34.3363 25.7284C34.0071 25.5638 33.8186 25.2083 33.8674 24.8433L34.2493 21.9799L32.0836 22.6099C31.6052 22.7492 31.1087 22.4549 31.0011 21.9684L30.7936 21.0309L28.7601 23.4108C28.4782 23.7407 27.9412 23.4888 28.0147 23.061L28.8832 18.0114L27.5536 18.3751C27.1652 18.4813 26.7551 18.3046 26.5657 17.9493L25.1656 15.3252V15.3213L25.1646 15.3232L25.1636 15.3213V15.3252L23.7635 17.9493C23.5739 18.3045 23.1638 18.4812 22.7754 18.3751L21.4457 18.0114L22.3142 23.061C22.3877 23.4886 21.8506 23.7406 21.5687 23.4108L19.5352 21.0309L19.3277 21.9684C19.2201 22.455 18.7236 22.7491 18.2452 22.6099L16.0795 21.9799L16.4614 24.8433C16.5102 25.2082 16.3217 25.5638 15.9925 25.7284L14.8187 26.3153L19.9342 29.2385C20.4641 29.5413 20.6963 30.1835 20.4825 30.7551L20.0452 31.9247L24.4285 31.5505C24.6711 31.5298 24.8775 31.7251 24.8704 31.9683L24.7323 36.6601H25.5944L25.4562 31.9681C25.4491 31.7248 25.6556 31.5296 25.8981 31.5503L30.2835 31.9247L29.8462 30.7551C29.6326 30.1834 29.8647 29.5411 30.3946 29.2384Z" fill="#FF4B55"/>
</g>
<defs>
<clipPath id="clip0_1:3642">
<rect width="50" height="50" fill="white" transform="translate(0.162109 0.453369)"/>
</clipPath>
</defs>
</svg>
