<svg width="51" height="51" viewBox="0 0 51 51" fill="none" xmlns="http://www.w3.org/2000/svg">
<g clip-path="url(#clip0_1:3442)">
<path d="M49.5796 42.2608H1.30388C0.827807 42.2608 0.441772 41.8747 0.441772 41.3987V10.3642C0.441772 9.88817 0.827807 9.50214 1.30388 9.50214H49.5797C50.0557 9.50214 50.4418 9.88817 50.4418 10.3642V41.3987C50.4417 41.8748 50.0556 42.2608 49.5796 42.2608Z" fill="#FF4B55"/>
<path d="M8.74268 14.625L9.56455 17.0892L12.1622 17.1093C12.4985 17.1119 12.638 17.5412 12.3674 17.7409L10.2777 19.284L11.0612 21.7607C11.1626 22.0814 10.7976 22.3465 10.5239 22.151L8.41065 20.6404L6.29737 22.1509C6.02374 22.3465 5.6587 22.0812 5.76007 21.7606L6.54356 19.2839L4.45392 17.7409C4.18331 17.5411 4.32276 17.1119 4.65909 17.1093L7.25674 17.0892L8.07862 14.625C8.18506 14.3058 8.63633 14.3058 8.74268 14.625Z" fill="#FFE15A"/>
<path d="M18.1754 15.2322L18.7648 16.0359L19.7158 15.7384C19.839 15.7 19.9403 15.8404 19.8649 15.945L19.2826 16.7537L19.8594 17.5663C19.9341 17.6714 19.8319 17.8112 19.709 17.7718L18.7599 17.468L18.1653 18.2677C18.0883 18.3713 17.9238 18.3171 17.9233 18.1882L17.9189 17.1917L16.9745 16.8732C16.8524 16.8319 16.8529 16.6589 16.9754 16.6184L17.9217 16.3063L17.9328 15.3098C17.9342 15.181 18.0991 15.1282 18.1754 15.2322Z" fill="#FFE15A"/>
<path d="M14.5874 12.8367L15.5781 12.9443L16.0008 12.0419C16.0555 11.9251 16.2274 11.9451 16.2538 12.0714L16.4575 13.0468L17.4464 13.1698C17.5744 13.1857 17.6085 13.3555 17.4965 13.4196L16.6317 13.9147L16.8203 14.8932C16.8447 15.02 16.6938 15.1048 16.5982 15.0181L15.86 14.3487L14.9878 14.8304C14.8749 14.8928 14.7474 14.7754 14.8004 14.6577L15.2089 13.7487L14.4811 13.0679C14.387 12.9802 14.4592 12.8228 14.5874 12.8367Z" fill="#FFE15A"/>
<path d="M16.1536 22.4942L15.5642 23.2979L14.6132 23.0005C14.49 22.962 14.3887 23.1024 14.4641 23.207L15.0464 24.0157L14.4696 24.8283C14.3949 24.9335 14.4971 25.0732 14.62 25.0339L15.5691 24.73L16.1637 25.5297C16.2407 25.6333 16.4052 25.5792 16.4057 25.4503L16.4101 24.4537L17.3545 24.1352C17.4767 24.0939 17.4761 23.9209 17.3536 23.8804L16.4073 23.5683L16.3962 22.5718C16.3946 22.4431 16.2298 22.3901 16.1536 22.4942Z" fill="#FFE15A"/>
<path d="M19.7416 20.2431L18.7508 20.3508L18.3282 19.4483C18.2734 19.3315 18.1015 19.3515 18.0751 19.4778L17.8713 20.4532L16.8825 20.5762C16.7544 20.5922 16.7204 20.7619 16.8324 20.826L17.6971 21.3212L17.5085 22.2997C17.4841 22.4264 17.635 22.5112 17.7306 22.4246L18.4688 21.7551L19.3411 22.2368C19.454 22.2992 19.5814 22.1818 19.5285 22.0641L19.12 21.1552L19.8477 20.4743C19.9421 20.3866 19.87 20.2293 19.7416 20.2431Z" fill="#FFE15A"/>
</g>
<defs>
<clipPath id="clip0_1:3442">
<rect width="50" height="50" fill="white" transform="translate(0.441406 0.881348)"/>
</clipPath>
</defs>
</svg>
