<svg width="51" height="51" viewBox="0 0 51 51" fill="none" xmlns="http://www.w3.org/2000/svg">
<g clip-path="url(#clip0_1:2411)">
<path d="M49.6072 41.5394H1.33147C0.855395 41.5394 0.46936 41.1534 0.46936 40.6773V9.64287C0.46936 9.1668 0.855395 8.78076 1.33147 8.78076H49.6073C50.0833 8.78076 50.4694 9.1668 50.4694 9.64287V40.6773C50.4693 41.1535 50.0832 41.5394 49.6072 41.5394Z" fill="#F5F5F5"/>
<path d="M25.4692 34.6426C30.7062 34.6426 34.9516 30.3971 34.9516 25.1602C34.9516 19.9232 30.7062 15.6777 25.4692 15.6777C20.2322 15.6777 15.9868 19.9232 15.9868 25.1602C15.9868 30.3971 20.2322 34.6426 25.4692 34.6426Z" fill="#FF4B55"/>
</g>
<defs>
<clipPath id="clip0_1:2411">
<rect width="50" height="50" fill="white" transform="translate(0.46875 0.160156)"/>
</clipPath>
</defs>
</svg>
