<svg width="51" height="51" viewBox="0 0 51 51" fill="none" xmlns="http://www.w3.org/2000/svg">
<g clip-path="url(#clip0_1:1958)">
<path d="M17.5649 41.5535H1.7603C1.28423 41.5535 0.898193 41.1675 0.898193 40.6914V9.65694C0.898193 9.18087 1.28423 8.79483 1.7603 8.79483H17.5649V41.5535Z" fill="#73AF00"/>
<path d="M34.2322 8.79532H17.5652V41.5541H34.2322V8.79532Z" fill="#F5F5F5"/>
<path d="M50.0362 41.5536H34.2316V8.79495H50.0362C50.5122 8.79495 50.8983 9.18099 50.8983 9.65706V40.6915C50.8983 41.1677 50.5122 41.5536 50.0362 41.5536Z" fill="#FF4B55"/>
<path d="M27.385 25.9453L25.8982 26.6889V27.4323H26.6417L27.385 25.9453Z" fill="#FFD250"/>
<path d="M25.8968 29.2908C25.6913 29.2908 25.525 29.1245 25.525 28.9191V27.4322C25.525 27.2268 25.6913 27.0605 25.8968 27.0605C26.1023 27.0605 26.2686 27.2268 26.2686 27.4322V28.9191C26.2686 29.1245 26.1023 29.2908 25.8968 29.2908Z" fill="#00C3A0"/>
<path d="M25.8968 27.804C24.4367 27.804 23.0268 27.2406 21.9266 26.2177C21.7763 26.0779 21.7676 25.8427 21.9073 25.6925C22.0481 25.5426 22.2831 25.5346 22.4325 25.6731C23.3948 26.568 24.6251 27.0605 25.8967 27.0605C27.1682 27.0605 28.3985 26.568 29.3608 25.6731C29.5107 25.5342 29.7456 25.5418 29.886 25.6925C30.0258 25.8428 30.0171 26.078 29.8667 26.2177C28.7667 27.2407 27.3568 27.804 25.8968 27.804Z" fill="#00C3A0"/>
<path d="M25.8982 29.2908C24.9452 29.2908 24.0222 29.0124 23.2286 28.4854L23.6403 27.866C24.982 28.7575 26.8144 28.7575 28.156 27.866L28.5676 28.4854C27.7741 29.0125 26.8511 29.2908 25.8982 29.2908Z" fill="#00AADC"/>
<path d="M25.3095 24.2726L24.4887 25.5428L24.3492 25.9609L26.4866 25.4653L25.3095 24.2726Z" fill="#732D37"/>
<path d="M23.6232 26.3694C22.6406 26.3694 21.4611 25.5425 21.1482 23.6999L21.8815 23.5758C22.1415 25.108 23.084 25.6271 23.65 25.6257C23.8236 25.6209 24.0046 25.561 24.0189 25.4384C24.0356 25.2917 24.0396 25.2569 23.6508 25.1255C23.4395 25.0539 23.1999 24.9731 23.0319 24.7807C22.3519 24.0042 23.2725 23.1824 23.7148 22.7875C23.7928 22.7178 23.8251 22.6586 23.8168 22.6361C23.7925 22.5726 23.6466 22.4765 23.4822 22.4765C23.0099 22.4765 22.6516 22.2097 22.5475 21.7806C22.4393 21.3362 22.6437 20.868 23.0329 20.6669L23.3742 21.3275C23.283 21.3747 23.2468 21.509 23.27 21.6049C23.2791 21.6434 23.3012 21.733 23.4824 21.733C23.9375 21.733 24.3707 22.0017 24.5115 22.3712C24.5717 22.5287 24.6624 22.9382 24.2102 23.3422C23.7219 23.7782 23.4297 24.1064 23.5916 24.2911C23.6283 24.3328 23.7855 24.3862 23.8893 24.4211C24.224 24.5344 24.8469 24.7449 24.7577 25.5235C24.7017 26.0132 24.2647 26.3529 23.6708 26.369C23.6548 26.369 23.6388 26.3694 23.6232 26.3694Z" fill="#AAD264"/>
<path d="M26.6417 22.2282C26.6417 22.2282 27.3851 20.7414 25.8982 19.998C25.8982 19.998 31.1022 19.2545 30.3587 25.9454L30.3584 25.9451C29.8706 25.5548 29.1461 24.8414 28.8874 24.2727L26.6417 22.9716V22.2282Z" fill="#874150"/>
<path d="M25.8982 23.7151L29.6153 25.9453C29.6153 25.9453 29.6153 25.9453 28.1285 26.6888L25.8982 24.4586V23.7151Z" fill="#732D37"/>
<path d="M24.4113 21.4848C24.8218 21.4848 25.1547 21.8177 25.1547 22.2282L25.1539 22.229C24.7104 22.6726 24.6005 23.35 24.881 23.9111L25.0489 24.2471C25.119 24.3871 25.2112 24.5151 25.3219 24.6258L27.3851 26.689V25.6615C27.3851 24.3816 27.0871 23.1192 26.5147 21.9743C26.1368 21.2188 25.3646 20.7414 24.5198 20.7414H24.4114V21.485H24.4113V21.4848Z" fill="#783C46"/>
<path d="M24.4117 20.7413L23.6682 21.4848V22.2282C23.6682 22.2282 24.5526 21.7799 24.8506 21.637C25.0589 21.5372 25.021 21.3012 24.9015 21.1874C24.8084 21.0989 24.4117 20.7413 24.4117 20.7413Z" fill="#FFD250"/>
<path d="M25.8982 30.7777C22.4138 30.7777 19.5791 27.943 19.5791 24.4585H20.3226C20.3226 27.5332 22.8236 30.0343 25.8983 30.0343C28.973 30.0343 31.4741 27.5332 31.4741 24.4585H32.2176C32.2174 27.943 29.3827 30.7777 25.8982 30.7777Z" fill="#AAD264"/>
<path d="M20.3646 27.1691C20.6432 27.1691 20.8691 26.9432 20.8691 26.6646C20.8691 26.386 20.6432 26.1601 20.3646 26.1601C20.086 26.1601 19.8601 26.386 19.8601 26.6646C19.8601 26.9432 20.086 27.1691 20.3646 27.1691Z" fill="#FFE15A"/>
<path d="M21.4795 28.9502C21.7581 28.9502 21.984 28.7244 21.984 28.4457C21.984 28.1671 21.7581 27.9413 21.4795 27.9413C21.2008 27.9413 20.975 28.1671 20.975 28.4457C20.975 28.7244 21.2008 28.9502 21.4795 28.9502Z" fill="#FFE15A"/>
<path d="M23.2912 30.297C23.5699 30.297 23.7957 30.0711 23.7957 29.7925C23.7957 29.5139 23.5699 29.288 23.2912 29.288C23.0126 29.288 22.7867 29.5139 22.7867 29.7925C22.7867 30.0711 23.0126 30.297 23.2912 30.297Z" fill="#FFE15A"/>
<path d="M31.489 27.1691C31.7676 27.1691 31.9935 26.9432 31.9935 26.6646C31.9935 26.386 31.7676 26.1601 31.489 26.1601C31.2104 26.1601 30.9845 26.386 30.9845 26.6646C30.9845 26.9432 31.2104 27.1691 31.489 27.1691Z" fill="#FFE15A"/>
<path d="M30.3724 28.9502C30.651 28.9502 30.8769 28.7244 30.8769 28.4457C30.8769 28.1671 30.651 27.9413 30.3724 27.9413C30.0938 27.9413 29.8679 28.1671 29.8679 28.4457C29.8679 28.7244 30.0938 28.9502 30.3724 28.9502Z" fill="#FFE15A"/>
<path d="M28.5608 30.297C28.8394 30.297 29.0653 30.0711 29.0653 29.7925C29.0653 29.5139 28.8394 29.288 28.5608 29.288C28.2821 29.288 28.0563 29.5139 28.0563 29.7925C28.0563 30.0711 28.2821 30.297 28.5608 30.297Z" fill="#FFE15A"/>
<path d="M26.2701 29.6625H25.5267C25.1161 29.6625 24.7832 29.3296 24.7832 28.9191C24.7832 28.5085 25.1161 28.1756 25.5267 28.1756H26.2701C26.6807 28.1756 27.0136 28.5085 27.0136 28.9191C27.0136 29.3297 26.6807 29.6625 26.2701 29.6625Z" fill="#FFB478"/>
<path d="M28.8874 24.2726C29.1353 25.0005 29.6619 25.6665 30.3584 25.945L30.3587 25.9453C31.1022 19.2546 25.8982 19.998 25.8982 19.998C29.6153 19.998 28.8874 24.2726 28.8874 24.2726Z" fill="#9B4B5A"/>
</g>
<defs>
<clipPath id="clip0_1:1958">
<rect width="50" height="50" fill="white" transform="translate(0.898438 0.174561)"/>
</clipPath>
</defs>
</svg>
