<svg width="50" height="51" viewBox="0 0 50 51" fill="none" xmlns="http://www.w3.org/2000/svg">
<g clip-path="url(#clip0_1:352)">
<path d="M49.1378 41.703H0.862108C0.386034 41.703 0 41.317 0 40.8409V9.8065C0 9.33043 0.386034 8.9444 0.862108 8.9444H49.1379C49.614 8.9444 50 9.33043 50 9.8065V40.8409C49.9999 41.3171 49.6139 41.703 49.1378 41.703Z" fill="#F5F5F5"/>
<path d="M49.9999 11.4644H0V9.8065C0 9.33043 0.386034 8.9444 0.862108 8.9444H49.1379C49.614 8.9444 50 9.33043 50 9.8065L49.9999 11.4644Z" fill="#FF4B55"/>
<path d="M49.9999 19.0239H0V21.5438H49.9999V19.0239Z" fill="#FF4B55"/>
<path d="M49.9999 13.9839H0V16.5038H49.9999V13.9839Z" fill="#FF4B55"/>
<path d="M49.9999 26.5837H0.862108C0.386034 26.5837 0 26.1976 0 25.7216V24.0637H49.9999V26.5837Z" fill="#FF4B55"/>
<path d="M49.9999 34.144H0V36.6639H49.9999V34.144Z" fill="#FF4B55"/>
<path d="M49.1378 41.703H0.862108C0.386034 41.703 0 41.3169 0 40.8409V39.183H49.9999V40.841C49.9999 41.317 49.6139 41.703 49.1378 41.703Z" fill="#FF4B55"/>
<path d="M49.9999 29.1039H0V31.6239H49.9999V29.1039Z" fill="#FF4B55"/>
<path d="M22.4137 8.94452H0.862108C0.386034 8.94452 0 9.33046 0 9.80653V25.7215C0 26.1976 0.386034 26.5836 0.862108 26.5836H22.4138C22.8899 26.5836 23.2759 26.1976 23.2759 25.7215V9.80653C23.2758 9.33046 22.8898 8.94452 22.4137 8.94452Z" fill="#41479B"/>
<path d="M2.42152 10.9232L2.61234 11.4955L3.21557 11.5C3.29369 11.5007 3.32602 11.6003 3.26322 11.6467L2.77797 12.0051L2.96 12.5802C2.98363 12.6546 2.89877 12.7164 2.8352 12.6708L2.34447 12.3202L1.85375 12.6709C1.79018 12.7164 1.70551 12.6547 1.72895 12.5803L1.91098 12.0052L1.42573 11.6468C1.36293 11.6003 1.39526 11.5008 1.47338 11.5001L2.0766 11.4956L2.26742 10.9233C2.29203 10.8491 2.39672 10.8491 2.42152 10.9232Z" fill="#F5F5F5"/>
<path d="M2.42113 13.9167L2.61195 14.4889L3.21518 14.4935C3.2933 14.4942 3.32562 14.5938 3.26283 14.6402L2.77758 14.9986L2.95961 15.5737C2.98324 15.6481 2.89838 15.7098 2.8348 15.6643L2.34408 15.3136L1.85336 15.6644C1.78979 15.7098 1.70512 15.6482 1.72856 15.5738L1.91059 14.9987L1.42534 14.6403C1.36254 14.5938 1.39487 14.4943 1.47299 14.4936L2.07621 14.489L2.26703 13.9167C2.29164 13.8426 2.39633 13.8426 2.42113 13.9167Z" fill="#F5F5F5"/>
<path d="M2.42113 16.9102L2.61195 17.4825L3.21518 17.4871C3.2933 17.4878 3.32562 17.5874 3.26283 17.6338L2.77758 17.9922L2.95961 18.5673C2.98324 18.6417 2.89838 18.7034 2.8348 18.6579L2.34408 18.3072L1.85336 18.658C1.78979 18.7034 1.70512 18.6418 1.72856 18.5674L1.91059 17.9923L1.42534 17.6339C1.36254 17.5874 1.39487 17.4879 1.47299 17.4872L2.07621 17.4826L2.26703 16.9103C2.29164 16.8362 2.39633 16.8362 2.42113 16.9102Z" fill="#F5F5F5"/>
<path d="M2.42113 19.9039L2.61195 20.4762L3.21518 20.4808C3.2933 20.4814 3.32562 20.5811 3.26283 20.6274L2.77758 20.9858L2.95961 21.5609C2.98324 21.6353 2.89838 21.6971 2.8348 21.6516L2.34408 21.3009L1.85336 21.6517C1.78979 21.6971 1.70512 21.6354 1.72856 21.561L1.91059 20.9859L1.42534 20.6275C1.36254 20.5811 1.39487 20.4815 1.47299 20.4809L2.07621 20.4763L2.26703 19.904C2.29164 19.8298 2.39633 19.8298 2.42113 19.9039Z" fill="#F5F5F5"/>
<path d="M2.42113 22.8974L2.61195 23.4697L3.21518 23.4743C3.2933 23.475 3.32562 23.5746 3.26283 23.621L2.77758 23.9794L2.95961 24.5545C2.98324 24.6289 2.89838 24.6906 2.8348 24.6451L2.34408 24.2944L1.85336 24.6452C1.78979 24.6906 1.70512 24.629 1.72856 24.5546L1.91059 23.9795L1.42534 23.6211C1.36254 23.5746 1.39487 23.4751 1.47299 23.4744L2.07621 23.4698L2.26703 22.8975C2.29164 22.8232 2.39633 22.8232 2.42113 22.8974Z" fill="#F5F5F5"/>
<path d="M4.74458 12.3908L4.9354 12.963L5.53862 12.9676C5.61674 12.9683 5.64907 13.0679 5.58628 13.1143L5.10102 13.4727L5.28305 14.0478C5.30669 14.1222 5.22182 14.1839 5.15825 14.1384L4.66753 13.7877L4.17681 14.1384C4.11323 14.1838 4.02856 14.1222 4.052 14.0478L4.23403 13.4727L3.74878 13.1143C3.68599 13.0678 3.71831 12.9683 3.79644 12.9676L4.39966 12.963L4.59048 12.3908C4.61499 12.3168 4.71987 12.3168 4.74458 12.3908Z" fill="#F5F5F5"/>
<path d="M4.74458 15.3844L4.9354 15.9567L5.53862 15.9613C5.61674 15.962 5.64907 16.0616 5.58628 16.108L5.10102 16.4664L5.28305 17.0415C5.30669 17.1159 5.22182 17.1776 5.15825 17.1321L4.66753 16.7813L4.17681 17.1321C4.11323 17.1775 4.02856 17.116 4.052 17.0415L4.23403 16.4664L3.74878 16.108C3.68599 16.0615 3.71831 15.962 3.79644 15.9613L4.39966 15.9567L4.59048 15.3844C4.61499 15.3103 4.71987 15.3103 4.74458 15.3844Z" fill="#F5F5F5"/>
<path d="M4.74458 18.378L4.9354 18.9502L5.53862 18.9548C5.61674 18.9555 5.64907 19.0551 5.58628 19.1015L5.10102 19.4599L5.28305 20.035C5.30669 20.1094 5.22182 20.1711 5.15825 20.1256L4.66753 19.7749L4.17681 20.1256C4.11323 20.171 4.02856 20.1094 4.052 20.035L4.23403 19.4599L3.74878 19.1015C3.68599 19.055 3.71831 18.9555 3.79644 18.9548L4.39966 18.9502L4.59048 18.378C4.61499 18.3039 4.71987 18.3039 4.74458 18.378Z" fill="#F5F5F5"/>
<path d="M4.74458 21.3716L4.9354 21.9438L5.53862 21.9484C5.61674 21.9491 5.64907 22.0487 5.58628 22.0951L5.10102 22.4535L5.28305 23.0286C5.30669 23.103 5.22182 23.1647 5.15825 23.1192L4.66753 22.7684L4.17681 23.1192C4.11323 23.1646 4.02856 23.103 4.052 23.0286L4.23403 22.4535L3.74878 22.0951C3.68599 22.0486 3.71831 21.9491 3.79644 21.9484L4.39966 21.9438L4.59048 21.3716C4.61499 21.2975 4.71987 21.2975 4.74458 21.3716Z" fill="#F5F5F5"/>
<path d="M7.0682 10.9231L7.25902 11.4954L7.86225 11.5C7.94037 11.5007 7.97269 11.6003 7.9099 11.6467L7.42465 12.0051L7.60668 12.5802C7.63031 12.6546 7.54545 12.7163 7.48188 12.6708L6.99115 12.32L6.50043 12.6708C6.43686 12.7162 6.35219 12.6546 6.37563 12.5802L6.55766 12.0051L6.07241 11.6467C6.00961 11.6002 6.04194 11.5007 6.12006 11.5L6.72328 11.4954L6.9141 10.9231C6.93871 10.849 7.0435 10.849 7.0682 10.9231Z" fill="#F5F5F5"/>
<path d="M7.0682 13.9167L7.25902 14.4889L7.86225 14.4935C7.94037 14.4942 7.97269 14.5938 7.9099 14.6402L7.42465 14.9986L7.60668 15.5737C7.63031 15.6481 7.54545 15.7098 7.48188 15.6643L6.99115 15.3135L6.50043 15.6643C6.43686 15.7097 6.35219 15.6481 6.37563 15.5737L6.55766 14.9986L6.07241 14.6402C6.00961 14.5937 6.04194 14.4942 6.12006 14.4935L6.72328 14.4889L6.9141 13.9167C6.93871 13.8426 7.0435 13.8426 7.0682 13.9167Z" fill="#F5F5F5"/>
<path d="M7.0682 16.9103L7.25902 17.4825L7.86225 17.4871C7.94037 17.4878 7.97269 17.5874 7.9099 17.6338L7.42465 17.9922L7.60668 18.5673C7.63031 18.6417 7.54545 18.7034 7.48188 18.6579L6.99115 18.3071L6.50043 18.6579C6.43686 18.7033 6.35219 18.6417 6.37563 18.5673L6.55766 17.9922L6.07241 17.6338C6.00961 17.5873 6.04194 17.4878 6.12006 17.4871L6.72328 17.4825L6.9141 16.9103C6.93871 16.8362 7.0435 16.8362 7.0682 16.9103Z" fill="#F5F5F5"/>
<path d="M7.0682 19.9039L7.25902 20.4761L7.86225 20.4807C7.94037 20.4814 7.97269 20.581 7.9099 20.6274L7.42465 20.9858L7.60668 21.5609C7.63031 21.6353 7.54545 21.697 7.48188 21.6515L6.99115 21.3007L6.50043 21.6515C6.43686 21.6969 6.35219 21.6353 6.37563 21.5609L6.55766 20.9858L6.07241 20.6274C6.00961 20.5809 6.04194 20.4814 6.12006 20.4807L6.72328 20.4761L6.9141 19.9039C6.93871 19.8297 7.0435 19.8297 7.0682 19.9039Z" fill="#F5F5F5"/>
<path d="M7.0682 22.8975L7.25902 23.4697L7.86225 23.4743C7.94037 23.475 7.97269 23.5746 7.9099 23.621L7.42465 23.9794L7.60668 24.5545C7.63031 24.6289 7.54545 24.6906 7.48188 24.6451L6.99115 24.2943L6.50043 24.6451C6.43686 24.6905 6.35219 24.6289 6.37563 24.5545L6.55766 23.9794L6.07241 23.621C6.00961 23.5745 6.04194 23.475 6.12006 23.4743L6.72328 23.4697L6.9141 22.8975C6.93871 22.8232 7.0435 22.8232 7.0682 22.8975Z" fill="#F5F5F5"/>
<path d="M9.39191 12.3908L9.58273 12.963L10.186 12.9676C10.2641 12.9683 10.2964 13.0679 10.2336 13.1143L9.74836 13.4727L9.93039 14.0478C9.95402 14.1222 9.86916 14.1839 9.80558 14.1384L9.31486 13.7877L8.82414 14.1384C8.76057 14.1838 8.6759 14.1222 8.69934 14.0478L8.88137 13.4727L8.39611 13.1143C8.33332 13.0678 8.36564 12.9683 8.44377 12.9676L9.04699 12.963L9.23781 12.3908C9.26232 12.3168 9.3672 12.3168 9.39191 12.3908Z" fill="#F5F5F5"/>
<path d="M9.39191 15.3844L9.58273 15.9567L10.186 15.9613C10.2641 15.962 10.2964 16.0616 10.2336 16.108L9.74836 16.4664L9.93039 17.0415C9.95402 17.1159 9.86916 17.1776 9.80558 17.1321L9.31486 16.7813L8.82414 17.1321C8.76057 17.1775 8.6759 17.116 8.69934 17.0415L8.88137 16.4664L8.39611 16.108C8.33332 16.0615 8.36564 15.962 8.44377 15.9613L9.04699 15.9567L9.23781 15.3844C9.26232 15.3103 9.3672 15.3103 9.39191 15.3844Z" fill="#F5F5F5"/>
<path d="M9.39191 18.378L9.58273 18.9502L10.186 18.9548C10.2641 18.9555 10.2964 19.0551 10.2336 19.1015L9.74836 19.4599L9.93039 20.035C9.95402 20.1094 9.86916 20.1711 9.80558 20.1256L9.31486 19.7749L8.82414 20.1256C8.76057 20.171 8.6759 20.1094 8.69934 20.035L8.88137 19.4599L8.39611 19.1015C8.33332 19.055 8.36564 18.9555 8.44377 18.9548L9.04699 18.9502L9.23781 18.378C9.26232 18.3039 9.3672 18.3039 9.39191 18.378Z" fill="#F5F5F5"/>
<path d="M9.39191 21.3716L9.58273 21.9438L10.186 21.9484C10.2641 21.9491 10.2964 22.0487 10.2336 22.0951L9.74836 22.4535L9.93039 23.0286C9.95402 23.103 9.86916 23.1647 9.80558 23.1192L9.31486 22.7684L8.82414 23.1192C8.76057 23.1646 8.6759 23.103 8.69934 23.0286L8.88137 22.4535L8.39611 22.0951C8.33332 22.0486 8.36564 21.9491 8.44377 21.9484L9.04699 21.9438L9.23781 21.3716C9.26232 21.2975 9.3672 21.2975 9.39191 21.3716Z" fill="#F5F5F5"/>
<path d="M11.7154 10.9231L11.9062 11.4954L12.5094 11.5C12.5875 11.5007 12.6199 11.6003 12.5571 11.6467L12.0718 12.0051L12.2538 12.5802C12.2775 12.6546 12.1926 12.7163 12.129 12.6708L11.6382 12.32L11.1475 12.6708C11.0839 12.7162 10.9993 12.6546 11.0227 12.5802L11.2047 12.0051L10.7195 11.6467C10.6567 11.6002 10.689 11.5007 10.7671 11.5L11.3704 11.4954L11.5612 10.9231C11.5859 10.849 11.6907 10.849 11.7154 10.9231Z" fill="#F5F5F5"/>
<path d="M11.7154 13.9167L11.9062 14.4889L12.5094 14.4935C12.5875 14.4942 12.6199 14.5938 12.5571 14.6402L12.0718 14.9986L12.2538 15.5737C12.2775 15.6481 12.1926 15.7098 12.129 15.6643L11.6382 15.3135L11.1475 15.6643C11.0839 15.7097 10.9993 15.6481 11.0227 15.5737L11.2047 14.9986L10.7195 14.6402C10.6567 14.5937 10.689 14.4942 10.7671 14.4935L11.3704 14.4889L11.5612 13.9167C11.5859 13.8426 11.6907 13.8426 11.7154 13.9167Z" fill="#F5F5F5"/>
<path d="M11.7154 16.9103L11.9062 17.4825L12.5094 17.4871C12.5875 17.4878 12.6199 17.5874 12.5571 17.6338L12.0718 17.9922L12.2538 18.5673C12.2775 18.6417 12.1926 18.7034 12.129 18.6579L11.6382 18.3071L11.1475 18.6579C11.0839 18.7033 10.9993 18.6417 11.0227 18.5673L11.2047 17.9922L10.7195 17.6338C10.6567 17.5873 10.689 17.4878 10.7671 17.4871L11.3704 17.4825L11.5612 16.9103C11.5859 16.8362 11.6907 16.8362 11.7154 16.9103Z" fill="#F5F5F5"/>
<path d="M11.7154 19.9039L11.9062 20.4761L12.5094 20.4807C12.5875 20.4814 12.6199 20.581 12.5571 20.6274L12.0718 20.9858L12.2538 21.5609C12.2775 21.6353 12.1926 21.697 12.129 21.6515L11.6382 21.3007L11.1475 21.6515C11.0839 21.6969 10.9993 21.6353 11.0227 21.5609L11.2047 20.9858L10.7195 20.6274C10.6567 20.5809 10.689 20.4814 10.7671 20.4807L11.3704 20.4761L11.5612 19.9039C11.5859 19.8297 11.6907 19.8297 11.7154 19.9039Z" fill="#F5F5F5"/>
<path d="M11.7154 22.8975L11.9062 23.4697L12.5094 23.4743C12.5875 23.475 12.6199 23.5746 12.5571 23.621L12.0718 23.9794L12.2538 24.5545C12.2775 24.6289 12.1926 24.6906 12.129 24.6451L11.6382 24.2943L11.1475 24.6451C11.0839 24.6905 10.9993 24.6289 11.0227 24.5545L11.2047 23.9794L10.7195 23.621C10.6567 23.5745 10.689 23.475 10.7671 23.4743L11.3704 23.4697L11.5612 22.8975C11.5859 22.8232 11.6907 22.8232 11.7154 22.8975Z" fill="#F5F5F5"/>
<path d="M14.039 12.3908L14.2298 12.963L14.833 12.9676C14.9111 12.9683 14.9435 13.0679 14.8807 13.1143L14.3954 13.4727L14.5775 14.0478C14.6011 14.1222 14.5162 14.1839 14.4527 14.1384L13.9619 13.7877L13.4712 14.1384C13.4076 14.1838 13.323 14.1222 13.3464 14.0478L13.5284 13.4727L13.0432 13.1143C12.9804 13.0678 13.0127 12.9683 13.0908 12.9676L13.6941 12.963L13.8849 12.3908C13.9096 12.3168 14.0143 12.3168 14.039 12.3908Z" fill="#F5F5F5"/>
<path d="M14.039 15.3844L14.2298 15.9567L14.833 15.9613C14.9111 15.962 14.9435 16.0616 14.8807 16.108L14.3954 16.4664L14.5775 17.0415C14.6011 17.1159 14.5162 17.1776 14.4527 17.1321L13.9619 16.7813L13.4712 17.1321C13.4076 17.1775 13.323 17.116 13.3464 17.0415L13.5284 16.4664L13.0432 16.108C12.9804 16.0615 13.0127 15.962 13.0908 15.9613L13.6941 15.9567L13.8849 15.3844C13.9096 15.3103 14.0143 15.3103 14.039 15.3844Z" fill="#F5F5F5"/>
<path d="M14.039 18.378L14.2298 18.9502L14.833 18.9548C14.9111 18.9555 14.9435 19.0551 14.8807 19.1015L14.3954 19.4599L14.5775 20.035C14.6011 20.1094 14.5162 20.1711 14.4527 20.1256L13.9619 19.7749L13.4712 20.1256C13.4076 20.171 13.323 20.1094 13.3464 20.035L13.5284 19.4599L13.0432 19.1015C12.9804 19.055 13.0127 18.9555 13.0908 18.9548L13.6941 18.9502L13.8849 18.378C13.9096 18.3039 14.0143 18.3039 14.039 18.378Z" fill="#F5F5F5"/>
<path d="M14.039 21.3716L14.2298 21.9438L14.833 21.9484C14.9111 21.9491 14.9435 22.0487 14.8807 22.0951L14.3954 22.4535L14.5775 23.0286C14.6011 23.103 14.5162 23.1647 14.4527 23.1192L13.9619 22.7684L13.4712 23.1192C13.4076 23.1646 13.323 23.103 13.3464 23.0286L13.5284 22.4535L13.0432 22.0951C12.9804 22.0486 13.0127 21.9491 13.0908 21.9484L13.6941 21.9438L13.8849 21.3716C13.9096 21.2975 14.0143 21.2975 14.039 21.3716Z" fill="#F5F5F5"/>
<path d="M16.3626 10.9231L16.5534 11.4954L17.1566 11.5C17.2348 11.5007 17.2671 11.6003 17.2043 11.6467L16.7191 12.0051L16.9011 12.5802C16.9247 12.6546 16.8399 12.7163 16.7763 12.6708L16.2856 12.32L15.7948 12.6708C15.7313 12.7162 15.6466 12.6546 15.67 12.5802L15.8521 12.0051L15.3668 11.6467C15.304 11.6002 15.3363 11.5007 15.4145 11.5L16.0177 11.4954L16.2085 10.9231C16.233 10.849 16.3379 10.849 16.3626 10.9231Z" fill="#F5F5F5"/>
<path d="M16.3626 13.9167L16.5534 14.4889L17.1566 14.4935C17.2348 14.4942 17.2671 14.5938 17.2043 14.6402L16.7191 14.9986L16.9011 15.5737C16.9247 15.6481 16.8399 15.7098 16.7763 15.6643L16.2856 15.3135L15.7948 15.6643C15.7313 15.7097 15.6466 15.6481 15.67 15.5737L15.8521 14.9986L15.3668 14.6402C15.304 14.5937 15.3363 14.4942 15.4145 14.4935L16.0177 14.4889L16.2085 13.9167C16.233 13.8426 16.3379 13.8426 16.3626 13.9167Z" fill="#F5F5F5"/>
<path d="M16.3626 16.9103L16.5534 17.4825L17.1566 17.4871C17.2348 17.4878 17.2671 17.5874 17.2043 17.6338L16.7191 17.9922L16.9011 18.5673C16.9247 18.6417 16.8399 18.7034 16.7763 18.6579L16.2856 18.3071L15.7948 18.6579C15.7313 18.7033 15.6466 18.6417 15.67 18.5673L15.8521 17.9922L15.3668 17.6338C15.304 17.5873 15.3363 17.4878 15.4145 17.4871L16.0177 17.4825L16.2085 16.9103C16.233 16.8362 16.3379 16.8362 16.3626 16.9103Z" fill="#F5F5F5"/>
<path d="M16.3626 19.9039L16.5534 20.4761L17.1566 20.4807C17.2348 20.4814 17.2671 20.581 17.2043 20.6274L16.7191 20.9858L16.9011 21.5609C16.9247 21.6353 16.8399 21.697 16.7763 21.6515L16.2856 21.3007L15.7948 21.6515C15.7313 21.6969 15.6466 21.6353 15.67 21.5609L15.8521 20.9858L15.3668 20.6274C15.304 20.5809 15.3363 20.4814 15.4145 20.4807L16.0177 20.4761L16.2085 19.9039C16.233 19.8297 16.3379 19.8297 16.3626 19.9039Z" fill="#F5F5F5"/>
<path d="M16.3626 22.8975L16.5534 23.4697L17.1566 23.4743C17.2348 23.475 17.2671 23.5746 17.2043 23.621L16.7191 23.9794L16.9011 24.5545C16.9247 24.6289 16.8399 24.6906 16.7763 24.6451L16.2856 24.2943L15.7948 24.6451C15.7313 24.6905 15.6466 24.6289 15.67 24.5545L15.8521 23.9794L15.3668 23.621C15.304 23.5745 15.3363 23.475 15.4145 23.4743L16.0177 23.4697L16.2085 22.8975C16.233 22.8232 16.3379 22.8232 16.3626 22.8975Z" fill="#F5F5F5"/>
<path d="M18.6861 12.3908L18.8769 12.963L19.4801 12.9676C19.5582 12.9683 19.5905 13.0679 19.5277 13.1143L19.0425 13.4727L19.2245 14.0478C19.2482 14.1222 19.1633 14.1839 19.0997 14.1384L18.609 13.7877L18.1183 14.1384C18.0547 14.1838 17.97 14.1222 17.9935 14.0478L18.1755 13.4727L17.6903 13.1143C17.6275 13.0678 17.6598 12.9683 17.7379 12.9676L18.3411 12.963L18.532 12.3908C18.5566 12.3168 18.6614 12.3168 18.6861 12.3908Z" fill="#F5F5F5"/>
<path d="M18.6861 15.3844L18.8769 15.9567L19.4801 15.9613C19.5582 15.962 19.5905 16.0616 19.5277 16.108L19.0425 16.4664L19.2245 17.0415C19.2482 17.1159 19.1633 17.1776 19.0997 17.1321L18.609 16.7813L18.1183 17.1321C18.0547 17.1775 17.97 17.116 17.9935 17.0415L18.1755 16.4664L17.6903 16.108C17.6275 16.0615 17.6598 15.962 17.7379 15.9613L18.3411 15.9567L18.532 15.3844C18.5566 15.3103 18.6614 15.3103 18.6861 15.3844Z" fill="#F5F5F5"/>
<path d="M18.6861 18.378L18.8769 18.9502L19.4801 18.9548C19.5582 18.9555 19.5905 19.0551 19.5277 19.1015L19.0425 19.4599L19.2245 20.035C19.2482 20.1094 19.1633 20.1711 19.0997 20.1256L18.609 19.7749L18.1183 20.1256C18.0547 20.171 17.97 20.1094 17.9935 20.035L18.1755 19.4599L17.6903 19.1015C17.6275 19.055 17.6598 18.9555 17.7379 18.9548L18.3411 18.9502L18.532 18.378C18.5566 18.3039 18.6614 18.3039 18.6861 18.378Z" fill="#F5F5F5"/>
<path d="M18.6861 21.3716L18.8769 21.9438L19.4801 21.9484C19.5582 21.9491 19.5905 22.0487 19.5277 22.0951L19.0425 22.4535L19.2245 23.0286C19.2482 23.103 19.1633 23.1647 19.0997 23.1192L18.609 22.7684L18.1183 23.1192C18.0547 23.1646 17.97 23.103 17.9935 23.0286L18.1755 22.4535L17.6903 22.0951C17.6275 22.0486 17.6598 21.9491 17.7379 21.9484L18.3411 21.9438L18.532 21.3716C18.5566 21.2975 18.6614 21.2975 18.6861 21.3716Z" fill="#F5F5F5"/>
<path d="M21.0097 10.9231L21.2005 11.4954L21.8037 11.5C21.8818 11.5007 21.9142 11.6003 21.8514 11.6467L21.3661 12.0051L21.5481 12.5802C21.5718 12.6546 21.4869 12.7163 21.4233 12.6708L20.9326 12.32L20.4419 12.6708C20.3783 12.7162 20.2937 12.6546 20.3171 12.5802L20.4991 12.0051L20.0139 11.6467C19.9511 11.6002 19.9834 11.5007 20.0615 11.5L20.6648 11.4954L20.8556 10.9231C20.8802 10.849 20.9849 10.849 21.0097 10.9231Z" fill="#F5F5F5"/>
<path d="M21.0097 13.9167L21.2005 14.4889L21.8037 14.4935C21.8818 14.4942 21.9142 14.5938 21.8514 14.6402L21.3661 14.9986L21.5481 15.5737C21.5718 15.6481 21.4869 15.7098 21.4233 15.6643L20.9326 15.3135L20.4419 15.6643C20.3783 15.7097 20.2937 15.6481 20.3171 15.5737L20.4991 14.9986L20.0139 14.6402C19.9511 14.5937 19.9834 14.4942 20.0615 14.4935L20.6648 14.4889L20.8556 13.9167C20.8802 13.8426 20.9849 13.8426 21.0097 13.9167Z" fill="#F5F5F5"/>
<path d="M21.0097 16.9103L21.2005 17.4825L21.8037 17.4871C21.8818 17.4878 21.9142 17.5874 21.8514 17.6338L21.3661 17.9922L21.5481 18.5673C21.5718 18.6417 21.4869 18.7034 21.4233 18.6579L20.9326 18.3071L20.4419 18.6579C20.3783 18.7033 20.2937 18.6417 20.3171 18.5673L20.4991 17.9922L20.0139 17.6338C19.9511 17.5873 19.9834 17.4878 20.0615 17.4871L20.6648 17.4825L20.8556 16.9103C20.8802 16.8362 20.9849 16.8362 21.0097 16.9103Z" fill="#F5F5F5"/>
<path d="M21.0097 19.9039L21.2005 20.4761L21.8037 20.4807C21.8818 20.4814 21.9142 20.581 21.8514 20.6274L21.3661 20.9858L21.5481 21.5609C21.5718 21.6353 21.4869 21.697 21.4233 21.6515L20.9326 21.3007L20.4419 21.6515C20.3783 21.6969 20.2937 21.6353 20.3171 21.5609L20.4991 20.9858L20.0139 20.6274C19.9511 20.5809 19.9834 20.4814 20.0615 20.4807L20.6648 20.4761L20.8556 19.9039C20.8802 19.8297 20.9849 19.8297 21.0097 19.9039Z" fill="#F5F5F5"/>
<path d="M21.0097 22.8975L21.2005 23.4697L21.8037 23.4743C21.8818 23.475 21.9142 23.5746 21.8514 23.621L21.3661 23.9794L21.5481 24.5545C21.5718 24.6289 21.4869 24.6906 21.4233 24.6451L20.9326 24.2943L20.4419 24.6451C20.3783 24.6905 20.2937 24.6289 20.3171 24.5545L20.4991 23.9794L20.0139 23.621C19.9511 23.5745 19.9834 23.475 20.0615 23.4743L20.6648 23.4697L20.8556 22.8975C20.8802 22.8232 20.9849 22.8232 21.0097 22.8975Z" fill="#F5F5F5"/>
</g>
<defs>
<clipPath id="clip0_1:352">
<rect width="50" height="50" fill="white" transform="translate(0 0.32373)"/>
</clipPath>
</defs>
</svg>
