<svg width="1031" height="408" viewBox="0 0 1031 408" fill="none" xmlns="http://www.w3.org/2000/svg">
<path fill-rule="evenodd" clip-rule="evenodd" d="M0 378C0 394.569 13.4315 408 30 408H139V0H30C13.4315 0 0 13.4315 0 30V378ZM892 0V408H1001C1017.57 408 1031 394.569 1031 378V30C1031 13.4315 1017.57 0 1001 0H892Z" fill="url(#paint0_linear)"/>
<path d="M221 408C204.431 408 191 394.569 191 378L191 30C191 13.4315 204.431 0 221 0L811 0C827.569 0 841 13.4315 841 30L841 378C841 394.569 827.569 408 811 408L221 408Z" fill="url(#paint1_linear)"/>
<path d="M349.2 150.75H372.66L394.395 214.69L416.13 150.75H439.59V159.95H431.54V227.8H439.59V237H412.91V227.8H420.96V166.045L399.455 227.8H389.335L367.83 166.045V227.8H375.88V237H349.2V227.8H357.25V159.95H349.2V150.75ZM463.083 237L451.123 224.35V174.9L463.083 162.25H495.513L507.473 174.9V224.35L495.513 237H463.083ZM467.568 227.11H490.913L496.893 221.015V178.235L491.028 172.14H467.683L461.703 178.235V221.015L467.568 227.11ZM537.648 227.8H545.698V237H519.018V227.8H527.068V171.45H519.018V162.25H542.938L576.518 225.73V171.45H568.468V162.25H595.148V171.45H587.098V237H571.228L537.648 173.635V227.8ZM605.443 162.25H660.183V184.79H650.983V171.45H624.073V195.025H650.983V204.225H624.073V227.8H650.983V214.46H660.183V237H605.443V227.8H613.493V171.45H605.443V162.25ZM690.284 237H665.904V227.8H672.574L693.734 198.705L673.724 171.45H667.054V162.25H691.434V171.45H685.569L700.404 191.805L715.124 171.45H709.259V162.25H733.639V171.45H726.969L706.384 199.855L726.854 227.8H733.639V237H709.259V227.8H715.009L699.599 206.755L684.419 227.8H690.284V237ZM780.376 237H746.796V227.8H758.296V171.45H742.426V184.79H733.686V162.25H793.486V184.79H784.746V171.45H768.876V227.8H780.376V237Z" fill="url(#paint2_linear)"/>
<path d="M275.5 259.72C260.104 259.72 247.579 272.245 247.579 287.642C247.579 303.038 260.104 315.563 275.5 315.563C290.896 315.563 303.421 303.038 303.421 287.642C303.421 272.245 290.896 259.72 275.5 259.72ZM275.5 321.142C257.027 321.142 242 306.114 242 287.642C242 269.169 257.027 254.142 275.5 254.142C293.973 254.142 309 269.169 309 287.642C309 306.114 293.973 321.142 275.5 321.142Z" fill="url(#paint3_linear)"/>
<path d="M287.546 290.431H275.5C273.955 290.431 272.711 289.187 272.711 287.642V266.065C272.711 264.52 273.955 263.276 275.5 263.276C277.045 263.276 278.289 264.52 278.289 266.065V284.852H287.546C289.092 284.852 290.336 286.097 290.336 287.642C290.336 289.187 289.092 290.431 287.546 290.431Z" fill="url(#paint4_linear)"/>
<path d="M276.049 152.185C258.077 152.185 243.457 137.565 243.457 119.593C243.457 101.62 258.077 87 276.049 87C294.022 87 308.642 101.62 308.642 119.593C308.642 137.565 294.022 152.185 276.049 152.185ZM276.049 92.4277C261.07 92.4277 248.884 104.613 248.884 119.593C248.884 134.572 261.07 146.757 276.049 146.757C291.028 146.757 303.214 134.572 303.214 119.593C303.214 104.613 291.028 92.4277 276.049 92.4277Z" fill="url(#paint5_linear)"/>
<path d="M274.945 140.385V136.248C272.883 135.982 271.193 135.53 269.903 134.864C268.613 134.199 267.495 133.122 266.551 131.645C265.606 130.155 265.061 128.346 264.914 126.204L269.065 125.419C269.384 127.641 269.956 129.264 270.768 130.301C271.925 131.765 273.322 132.59 274.945 132.763V119.606C273.242 119.287 271.513 118.621 269.73 117.637C268.413 116.905 267.402 115.881 266.684 114.591C265.979 113.287 265.619 111.81 265.619 110.161C265.619 107.221 266.657 104.839 268.746 103.017C270.142 101.793 272.204 101.048 274.945 100.769V98.7998H277.379V100.769C279.787 100.995 281.689 101.7 283.1 102.884C284.909 104.387 285.986 106.436 286.359 109.056L282.089 109.695C281.849 108.072 281.33 106.835 280.559 105.97C279.787 105.105 278.723 104.533 277.379 104.254V116.16C279.455 116.679 280.838 117.092 281.517 117.371C282.807 117.943 283.845 118.621 284.656 119.433C285.468 120.244 286.093 121.202 286.532 122.32C286.971 123.437 287.184 124.648 287.184 125.951C287.184 128.812 286.279 131.206 284.457 133.108C282.634 135.024 280.279 136.048 277.393 136.181V140.359H274.945V140.385ZM274.945 104.241C273.335 104.48 272.071 105.132 271.14 106.17C270.209 107.207 269.757 108.445 269.757 109.868C269.757 111.278 270.156 112.449 270.941 113.407C271.725 114.351 273.069 115.109 274.945 115.681V104.241ZM277.379 132.789C278.989 132.59 280.319 131.898 281.357 130.701C282.408 129.503 282.927 128.027 282.927 126.271C282.927 124.767 282.554 123.57 281.809 122.652C281.064 121.748 279.588 120.923 277.366 120.204V132.789H277.379Z" fill="url(#paint6_linear)"/>
<path d="M285.067 208.24V178.765C285.067 173.746 280.983 169.663 275.963 169.663C270.943 169.663 266.86 173.746 266.86 178.765V208.239C263.131 211.08 260.935 215.467 260.935 220.179C260.935 228.465 267.676 235.207 275.963 235.207C284.25 235.207 290.991 228.465 290.991 220.179C290.991 215.468 288.795 211.08 285.067 208.24ZM275.963 231.277C269.843 231.277 264.864 226.299 264.864 220.179C264.864 216.434 266.748 212.965 269.902 210.898C270.456 210.535 270.79 209.917 270.79 209.255V178.765C270.79 175.913 273.11 173.593 275.963 173.593C278.816 173.593 281.137 175.913 281.137 178.765V209.255C281.137 209.917 281.471 210.535 282.025 210.898C285.179 212.965 287.062 216.434 287.062 220.179C287.062 226.299 282.083 231.277 275.963 231.277Z" fill="url(#paint7_linear)"/>
<path d="M277.928 213.948V187.982C277.928 186.897 277.049 186.017 275.963 186.017C274.878 186.017 273.998 186.897 273.998 187.982V213.948C271.351 214.782 269.432 217.255 269.432 220.179C269.432 223.785 272.356 226.71 275.963 226.71C279.571 226.71 282.495 223.785 282.495 220.179C282.495 217.255 280.575 214.782 277.928 213.948Z" fill="url(#paint8_linear)"/>
<defs>
<linearGradient id="paint0_linear" x1="0" y1="204" x2="1031" y2="204" gradientUnits="userSpaceOnUse">
<stop stop-color="#FF0686"/>
<stop offset="1" stop-color="#FF9A37"/>
</linearGradient>
<linearGradient id="paint1_linear" x1="191" y1="204" x2="841" y2="204" gradientUnits="userSpaceOnUse">
<stop stop-color="#FF2079"/>
<stop offset="1" stop-color="#FF8045"/>
</linearGradient>
<linearGradient id="paint2_linear" x1="819" y1="134.675" x2="806.271" y2="286.209" gradientUnits="userSpaceOnUse">
<stop stop-color="white"/>
<stop offset="1" stop-color="#E1E1E1" stop-opacity="0.73"/>
</linearGradient>
<linearGradient id="paint3_linear" x1="275.5" y1="254.142" x2="275.5" y2="321.142" gradientUnits="userSpaceOnUse">
<stop stop-color="#F6E6E7"/>
<stop offset="1" stop-color="#EABCC5"/>
</linearGradient>
<linearGradient id="paint4_linear" x1="281.523" y1="263.276" x2="281.523" y2="290.431" gradientUnits="userSpaceOnUse">
<stop stop-color="#F6E6E7"/>
<stop offset="1" stop-color="#EABCC5"/>
</linearGradient>
<linearGradient id="paint5_linear" x1="276.049" y1="87" x2="276.049" y2="152.185" gradientUnits="userSpaceOnUse">
<stop stop-color="#F6E6E7"/>
<stop offset="1" stop-color="#EABCC5"/>
</linearGradient>
<linearGradient id="paint6_linear" x1="276.049" y1="98.7998" x2="276.049" y2="140.385" gradientUnits="userSpaceOnUse">
<stop stop-color="#F6E6E7"/>
<stop offset="1" stop-color="#EABCC5"/>
</linearGradient>
<linearGradient id="paint7_linear" x1="275.963" y1="169.663" x2="275.963" y2="235.207" gradientUnits="userSpaceOnUse">
<stop stop-color="#F6E6E7"/>
<stop offset="1" stop-color="#EABCC5"/>
</linearGradient>
<linearGradient id="paint8_linear" x1="275.963" y1="186.017" x2="275.963" y2="226.71" gradientUnits="userSpaceOnUse">
<stop stop-color="#F6E6E7"/>
<stop offset="1" stop-color="#EABCC5"/>
</linearGradient>
</defs>
</svg>
